<?xml version="1.0" encoding="UTF-8"?> <svg xmlns="http://www.w3.org/2000/svg" width="275" height="238" viewBox="0 0 275 238" fill="none"><path fill-rule="evenodd" clip-rule="evenodd" d="M238.937 80.6397C250.014 108.524 265.365 137.139 254.003 164.842C241.594 195.099 211.902 212.424 180.817 222.351C142.882 234.466 100.141 247.113 67.2287 224.491C31.3477 199.829 9.15334 153.033 17.9101 110.381C25.7772 72.0628 71.8485 61.7435 104.897 41.0205C132.52 23.6994 158.288 -6.53227 189.6 2.72307C220.54 11.8682 226.995 50.5776 238.937 80.6397Z" fill="url(#paint0_linear_4552_1535)"></path><path d="M134.495 25.3649V32.5846H121.588V37.2804H134.495V51.6611H139.541V37.2804H152.771V32.5846H139.541V18.1746H134.495V25.3649Z" fill="#7099A6"></path><path d="M92.3109 43.6783V54.1557H72.7733V60.7297H92.3109V82.0073H99.5568V60.7297H119.388V54.1557H99.5568V33.2009H92.3109V43.6783Z" fill="#EB912C"></path><path d="M174.187 43.6783V54.1557H154.649V61.0526H174.187V82.0073H181.726V61.0526H201.264V54.1557H181.726V33.2009H174.187V43.6783Z" fill="#59879B"></path><path d="M132.618 79.366V91.1053H110.88V99.8511H132.618V123.33H141.418V99.8511H163.156V91.1053H141.418V67.6266H132.618V79.366Z" fill="#E8762C"></path><path d="M196.54 85.2943V92.6607H183.31V98.6184H196.54V113.322H203.141V98.6184H216.371V92.6607H203.141V77.9572H196.54V85.2943Z" fill="#5B6591"></path><path d="M70.573 85.94V92.9837H57.6653V97.9729H70.573V112.06H75.6187V97.9729L88.8491 97.5033V92.9837H75.6187V78.8964H70.573V85.94Z" fill="#7099A6"></path><path d="M92.3109 119.104V129.581H72.7733V136.478H92.3109V157.433H99.8501V136.478H119.388V129.581H99.8501V108.626H92.3109V119.104Z" fill="#C72035"></path><path d="M174.187 119.104V129.581H154.649V136.155H174.187V157.433H181.726V136.155H201.264V129.581H181.726V108.626H174.187V119.104Z" fill="#1F447E"></path><path d="M133.879 145.723V153.06H120.649V159.018H133.879V173.721H140.48V159.018H153.71V153.06H140.48V138.356H133.879V145.723Z" fill="#5B6591"></path><path d="M145.5 180.975V219.825H141.137V180.975H145.5ZM37.1014 186.432V198.828H48.8404V202.918H37.1014V216.273H32.739V202.918H21V198.828H32.739V186.432H37.1014ZM173.633 194.943C174.421 194.982 175.426 195.11 175.884 195.225C176.329 195.34 177.067 195.608 177.512 195.825C177.97 196.03 178.707 196.477 179.153 196.822C179.61 197.167 180.246 197.806 180.577 198.241C180.908 198.675 181.378 199.467 181.633 199.991C181.887 200.515 182.218 201.435 182.37 202.036C182.523 202.637 182.701 203.851 182.841 206.33H167.757L167.846 206.841C167.884 207.122 168.049 207.723 168.177 208.17C168.317 208.618 168.673 209.321 168.952 209.717C169.232 210.113 169.652 210.586 169.868 210.752C170.097 210.918 170.555 211.199 170.898 211.378C171.229 211.544 171.814 211.761 172.196 211.864C172.577 211.966 173.595 212.055 174.51 212.055C175.413 212.055 176.711 211.966 177.385 211.851C178.059 211.736 179.013 211.506 179.496 211.352C179.979 211.199 180.615 210.956 180.895 210.816C181.175 210.675 181.467 210.547 181.544 210.547C181.629 210.547 181.679 211.262 181.683 214.228L181.683 214.637L180.933 214.982C180.513 215.174 179.649 215.48 178.987 215.672C178.326 215.851 177.118 216.081 176.291 216.17C175.159 216.285 174.396 216.285 173.213 216.17C172.348 216.081 171.089 215.851 170.415 215.659C169.741 215.468 168.762 215.084 168.253 214.803C167.731 214.522 166.854 213.87 166.294 213.346C165.722 212.822 165.01 211.966 164.679 211.442C164.348 210.918 163.941 210.023 163.751 209.461C163.56 208.899 163.331 207.915 163.242 207.289C163.14 206.586 163.115 205.602 163.166 204.835C163.204 204.119 163.369 203.046 163.522 202.445C163.674 201.844 164.043 200.86 164.336 200.26C164.628 199.659 165.175 198.803 165.531 198.356C165.9 197.908 166.625 197.218 167.146 196.822C167.668 196.426 168.545 195.927 169.092 195.697C169.627 195.467 170.555 195.199 171.14 195.084C171.84 194.956 172.679 194.905 173.633 194.943ZM218.948 194.739V201.589C218.948 205.359 218.91 209.87 218.745 214.79L217.651 215.122C217.053 215.301 215.845 215.583 214.955 215.723C213.823 215.928 212.742 216.004 211.279 216.004C210.122 216.004 208.786 215.94 208.303 215.864C207.82 215.774 206.866 215.531 206.192 215.314C205.467 215.084 204.526 214.637 203.941 214.253C203.368 213.883 202.58 213.231 202.173 212.784C201.778 212.349 201.219 211.583 200.952 211.097C200.685 210.611 200.316 209.717 200.138 209.129C199.871 208.273 199.794 207.608 199.731 206.062C199.693 204.822 199.731 203.723 199.833 203.122C199.922 202.598 200.151 201.717 200.341 201.154C200.519 200.592 200.939 199.697 201.27 199.173C201.588 198.649 202.274 197.819 202.796 197.333C203.381 196.796 204.144 196.247 204.767 195.94C205.327 195.672 206.141 195.34 206.599 195.212C207.044 195.097 208.15 194.956 209.053 194.918C210.262 194.867 210.961 194.918 211.711 195.071C212.284 195.199 213.136 195.48 213.632 195.71C214.115 195.927 214.535 196.119 214.548 196.106C214.571 196.106 214.584 195.849 214.586 195.52L214.586 194.739H218.948ZM83.9303 194.739L83.9302 203.261L83.9288 204.15C83.9192 208.15 83.8642 212.076 83.7269 214.79L82.6331 215.122C82.0353 215.301 80.7762 215.583 79.835 215.749C78.3979 215.992 77.7492 216.017 75.6761 215.966C73.7557 215.915 72.9799 215.838 72.1277 215.621C71.5172 215.455 70.4743 215.059 69.8003 214.726C69.088 214.368 68.2359 213.806 67.7526 213.384C67.3075 212.976 66.6716 212.247 66.3663 211.774C66.0484 211.289 65.6287 210.522 65.4506 210.075C65.2725 209.627 65.0055 208.733 64.8783 208.106C64.7002 207.186 64.6621 206.509 64.7129 204.899C64.7765 203.352 64.8655 202.598 65.0818 201.832C65.2471 201.269 65.6287 200.349 65.9212 199.787C66.2137 199.225 66.7987 198.368 67.2312 197.895C67.6763 197.41 68.4013 196.771 68.8464 196.464C69.2915 196.17 70.0292 195.774 70.4871 195.595C70.9322 195.416 71.7462 195.173 72.2931 195.071C72.8399 194.969 73.8574 194.879 74.5442 194.879C75.2437 194.879 76.2357 194.982 76.7699 195.084C77.2914 195.199 78.1181 195.48 78.6141 195.71C79.0974 195.927 79.5171 196.119 79.5298 196.106C79.5425 196.106 79.568 195.8 79.568 195.429V194.739H83.9303ZM109.456 185.065L109.457 191.559C109.461 195.564 109.498 195.82 109.698 195.761C109.838 195.71 110.499 195.531 111.173 195.34C111.974 195.122 112.941 194.982 113.971 194.918C115.141 194.867 115.828 194.905 116.693 195.071C117.43 195.212 118.308 195.518 119.084 195.902C119.758 196.234 120.648 196.796 121.068 197.167C121.475 197.525 122.124 198.279 122.492 198.841C122.874 199.403 123.344 200.298 123.548 200.848C123.764 201.384 124.031 202.394 124.158 203.097C124.311 204.017 124.349 204.809 124.298 206.062C124.26 206.995 124.12 208.158 123.993 208.643C123.879 209.129 123.573 209.96 123.332 210.483C123.09 211.007 122.607 211.813 122.263 212.26C121.933 212.707 121.259 213.372 120.775 213.742C120.305 214.113 119.44 214.624 118.88 214.88C118.321 215.148 117.392 215.48 116.833 215.634C115.955 215.876 115.396 215.915 112.877 215.928C110.499 215.94 109.723 215.889 108.782 215.685C108.146 215.544 107.09 215.276 106.455 215.097C105.819 214.918 105.259 214.714 105.208 214.662C105.157 214.611 105.094 207.94 105.068 199.825L105.017 185.065H109.456ZM240.391 195.288L240.379 202.138L240.379 202.677C240.379 202.764 240.379 202.851 240.379 202.936L240.379 203.901C240.383 208.154 240.41 208.972 240.576 209.626L240.595 209.696C240.611 209.753 240.628 209.811 240.646 209.87C240.811 210.381 241.116 210.982 241.371 211.289C241.612 211.57 242.121 211.953 242.503 212.132C242.871 212.311 243.584 212.515 244.067 212.579C244.588 212.656 245.326 212.656 245.848 212.579C246.331 212.515 247.043 212.311 247.412 212.132C247.793 211.953 248.302 211.57 248.544 211.289C248.798 210.982 249.116 210.381 249.269 209.87C249.289 209.804 249.308 209.74 249.325 209.671L249.338 209.619C249.496 208.945 249.528 207.729 249.534 200.156L249.535 199.545C249.535 199.441 249.535 199.336 249.535 199.23L249.536 197.547C249.536 197.429 249.536 197.31 249.536 197.189L249.536 195.288H254L253.975 202.688C253.963 208.862 253.952 209.921 253.775 210.619L253.759 210.681C253.751 210.711 253.742 210.741 253.733 210.771L253.714 210.831L253.695 210.892C253.542 211.34 253.224 212.017 252.983 212.388C252.741 212.771 252.321 213.295 252.029 213.576C251.749 213.857 251.138 214.305 250.693 214.573C250.248 214.841 249.383 215.212 248.785 215.404C248.099 215.621 247.183 215.787 246.331 215.851C245.568 215.889 244.347 215.889 243.596 215.838C242.744 215.787 241.816 215.621 241.142 215.404C240.531 215.212 239.679 214.841 239.221 214.573C238.776 214.305 238.178 213.857 237.886 213.576C237.606 213.295 237.174 212.771 236.932 212.388C236.703 212.017 236.385 211.34 236.232 210.892L236.222 210.862L236.202 210.803C236.182 210.743 236.164 210.684 236.148 210.621L236.132 210.557C235.961 209.853 235.947 208.645 235.915 202.688L235.864 195.288H240.391ZM210.211 198.982C209.727 198.982 208.99 199.084 208.583 199.186C208.163 199.301 207.527 199.557 207.158 199.761C206.789 199.966 206.255 200.388 205.963 200.707C205.67 201.027 205.289 201.589 205.098 201.972C204.907 202.343 204.666 203.033 204.551 203.506C204.437 203.966 204.348 204.873 204.348 205.512C204.348 206.151 204.437 207.059 204.551 207.519C204.666 207.991 204.882 208.63 205.047 208.95C205.212 209.269 205.632 209.832 205.976 210.19C206.319 210.56 206.879 210.995 207.209 211.161C207.553 211.34 208.163 211.583 208.583 211.698C209.053 211.838 209.829 211.915 210.732 211.915C211.495 211.915 212.576 211.851 213.111 211.774C213.657 211.698 214.179 211.583 214.255 211.531C214.37 211.468 214.433 209.819 214.471 205.87L214.51 200.285C213.136 199.582 212.373 199.288 211.915 199.173C211.47 199.058 210.707 198.969 210.211 198.982ZM73.5522 199.186C73.1452 199.301 72.5093 199.557 72.1404 199.761C71.7716 199.966 71.2374 200.388 70.9449 200.707C70.6524 201.027 70.2581 201.589 70.0801 201.972C69.8893 202.343 69.6477 203.033 69.5332 203.506C69.4187 203.966 69.3297 204.809 69.3297 205.372C69.3297 205.934 69.3933 206.765 69.4696 207.212C69.5586 207.659 69.7875 208.4 70.0038 208.848C70.2581 209.384 70.6651 209.934 71.1866 210.42C71.6953 210.892 72.2931 211.289 72.8145 211.493C73.4504 211.749 73.9592 211.825 75.2692 211.889C76.1976 211.928 77.3677 211.876 77.9909 211.787C78.5886 211.698 79.1482 211.583 79.2373 211.531C79.339 211.468 79.4153 209.691 79.4789 205.883L79.568 200.336C78.4487 199.723 77.8255 199.442 77.444 199.314C77.0752 199.173 76.2103 199.046 75.5362 199.02C74.6968 198.982 74.0736 199.033 73.5522 199.186ZM113.628 198.982C113.106 198.995 112.419 199.058 112.127 199.122C111.822 199.186 111.122 199.404 110.55 199.608L109.532 199.966V211.301C111.669 211.864 112.127 211.902 113.551 211.864C114.95 211.825 115.408 211.761 116.082 211.506C116.527 211.327 117.151 210.995 117.443 210.752C117.748 210.522 118.181 210.087 118.41 209.793C118.639 209.499 118.969 208.886 119.135 208.439C119.313 207.991 119.516 207.135 119.593 206.535C119.707 205.717 119.707 205.154 119.58 204.285C119.478 203.506 119.262 202.803 118.944 202.138C118.69 201.589 118.244 200.912 117.965 200.63C117.685 200.349 117.176 199.953 116.833 199.761C116.502 199.557 115.853 199.301 115.396 199.186C114.95 199.058 114.149 198.969 113.628 198.982ZM172.119 199.173C171.712 199.288 171.051 199.582 170.644 199.825C170.237 200.068 169.665 200.541 169.359 200.873C169.067 201.218 168.673 201.781 168.495 202.138C168.317 202.496 168.164 202.841 168.164 202.918C168.164 203.003 169.721 203.054 172.605 203.058L177.932 203.058C177.792 202.049 177.665 201.55 177.563 201.282C177.448 201.027 177.118 200.541 176.825 200.221C176.469 199.825 176.037 199.544 175.541 199.352C175.121 199.212 174.358 199.058 173.836 199.02C173.226 198.995 172.603 199.046 172.119 199.173Z" fill="#1F447E"></path><defs><linearGradient id="paint0_linear_4552_1535" x1="137" y1="1" x2="137" y2="237" gradientUnits="userSpaceOnUse"><stop stop-color="#E1F1FF"></stop><stop offset="1" stop-color="#C5DEFF"></stop></linearGradient></defs></svg> 